<svg xmlns="http://www.w3.org/2000/svg" viewBox="0 0 600 400" role="img" aria-labelledby="title desc">
  <title id="title">Shoes product illustration</title>
  <desc id="desc">A sneaker illustration with energetic sporty colors.</desc>
  <defs>
    <linearGradient id="bg" x1="0" x2="1" y1="0" y2="1">
      <stop offset="0%" stop-color="#22c55e"/>
      <stop offset="100%" stop-color="#14532d"/>
    </linearGradient>
  </defs>
  <rect width="600" height="400" rx="36" fill="url(#bg)"/>
  <circle cx="460" cy="100" r="72" fill="#fff" opacity="0.10"/>
  <circle cx="110" cy="295" r="82" fill="#fff" opacity="0.10"/>
  <path d="M150 250c40 0 88-17 128-48l42-34 48 55 84 28c20 7 34 25 34 47v10H140c-22 0-40-18-40-40v-3c0-8 6-15 14-15h36z" fill="#ecfccb"/>
  <path d="M208 227l55-40 38 42" fill="none" stroke="#14532d" stroke-width="14" stroke-linecap="round" stroke-linejoin="round"/>
  <path d="M198 265h182" stroke="#14532d" stroke-width="14" stroke-linecap="round"/>
  <path d="M250 244h66" stroke="#14532d" stroke-width="12" stroke-linecap="round" opacity="0.7"/>
</svg>
